<?xml version="1.0" encoding="utf-8"?>
<svg id="svg" version="1.1" xmlns="http://www.w3.org/2000/svg" width="300px" height="240px" viewBox="0 0 300 240">
  <g id="svgg" transform="matrix(0.988381, 0, 0, 1, -31.51778, -88.841911)">
    <g>
      <path style="stroke-width: 0px; fill: rgb(255, 255, 255);" d="M 46.747 115.057 C 52.252 115.057 64.584 117.121 73.594 122.161 C 78.909 125.135 84.721 128.901 89.654 137.661 C 93.361 144.243 96.188 152.878 94.959 165.716 C 95.063 167.259 92.661 170.691 92.649 170.506 L 85.9 158.614 C 85.405 162.645 83.225 167.245 80.899 170.949 C 79.42 173.304 77.882 175.297 76.681 176.551 C 74.653 178.668 69.35 160.863 69.35 160.863 C 69.35 160.863 65.158 172.408 61.986 174.958 C 57.925 178.222 57.681 162.942 57.681 162.942 L 51.756 170.045 C 54.44 158.654 59.628 138.661 57.172 131.023 C 54.716 123.385 49.916 118.374 48.247 116.705"/>
      <path style="fill: rgb(255, 255, 255);" d="M 177.571 235.815 C 176.875 237.191 177.172 238.734 176.693 240.156 C 175.921 242.444 173.183 246.238 174.644 249.126 C 175.635 251.084 180.324 250.225 181.963 249.415 C 182.901 248.951 184.869 250.105 185.768 250.283 C 188.671 250.857 192.22 251.012 194.844 252.309 C 199.366 254.544 204.785 255.373 209.775 256.36 C 210.671 256.537 213.223 257.115 214.166 256.649 C 216.159 255.664 216.692 250.607 217.387 248.547 C 217.793 247.341 223.754 243.845 221.778 241.892 C 221.253 241.373 216.447 241.403 215.63 241.313 C 209.121 240.598 202.379 236.683 196.015 236.683 C 189.983 236.683 182.181 236.683 176.985 236.683"/>
      <path style="fill: rgb(255, 255, 255);" d="M 239.02 258.345 C 241.209 257.264 250.53 254.716 252.191 254.442 C 255.103 253.962 261.396 247.492 261.396 247.492 C 261.396 247.492 258.853 253.376 259.765 253.442 C 262.451 253.635 276.688 242.305 277.38 236.688 C 277.423 236.335 278.558 242.307 279.262 241.96 C 280.554 241.322 282.895 236.869 283.724 236.185 C 285.587 234.651 285.186 222.798 285.186 222.798 C 285.186 222.798 289.112 228.86 289.794 228.186 C 291.138 226.858 291.242 219.505 291.565 219.186 C 294.799 215.99 315.411 193.197 317.33 189.402 C 318.304 187.478 325.158 180.986 325.158 180.986 C 325.158 180.986 326.131 178.822 327.035 176.141 C 327.103 175.94 321.766 172.268 320.518 171.446 C 319.347 170.674 317.818 155.785 316.355 152.892 C 315.483 151.168 311.34 139.801 311.473 138.372 C 311.679 136.16 320.465 114.219 317.453 111.242 C 316.034 109.839 310.713 112.869 309.154 113.309 C 302.936 115.065 294.894 122.36 289.103 124.268 C 286.678 125.067 278.1 122.632 277.654 122.191 C 275.081 119.648 268.647 104.837 266.694 105.481 C 264.499 106.204 260.836 110.753 259.894 112.615 C 258.186 115.991 255.589 132.007 255.589 137.727 C 255.589 148.345 253.325 157.631 249.471 167.311 C 246.888 173.798 243.396 181.656 245.519 187.951 C 247.206 192.953 256.633 208.137 258.555 211.936 C 259.304 213.416 251.524 221.4 249.183 224.871 C 246.418 228.971 242.553 244.769 241.739 247.185 C 240.554 250.698 236.435 255.193 239.462 258.184"/>
    </g>
    <path id="path0" d="M 125.41 276.739 C 125.043 278.575 123.027 289.202 122.374 292.722 C 121.636 296.698 120.971 301.12 120.597 304.08 C 120.426 305.435 120.505 308.762 121.575 309.713 C 122.016 311.35 133.257 311.278 133.236 311.199 C 133.236 311.199 139.451 309.98 138.546 308.408 C 137.959 307.389 135.551 303.866 135.551 303.866 C 135.551 303.866 127.918 301.778 127.747 301.681 C 130.286 302.292 130.825 280.619 135.703 277.388 C 133.26 278.159 131.951 277.361 131.561 275.812 C 131.216 274.442 130.916 274 130.329 274 C 129.902 274 129.656 273.832 129.783 273.627 C 129.915 273.413 129.177 273.286 128.045 273.327 L 126.056 273.301 L 125.41 276.739 M 182.575 277.7 L 181.4 279 L 182.7 277.825 C 183.912 276.73 184.184 276.4 183.875 276.4 C 183.806 276.4 183.221 276.985 182.575 277.7 M 234.493 278 C 234.493 278.77 234.575 279.085 234.676 278.7 C 234.776 278.315 234.776 277.685 234.676 277.3 C 234.575 276.915 234.493 277.23 234.493 278 M 256.115 278.529 C 255.27 279.492 254.043 281.05 253.374 282.013 L 251.877 283.43 L 252.545 287.318 C 252.66 288.168 254.588 302.742 258.231 308.427 C 257.802 310.4 272.966 310.878 274.543 309.002 C 274.21 306.567 274.184 305.335 272.717 304.389 C 269.862 302.548 265.853 303.394 264.025 301.612 C 262.509 300.135 260.898 292.501 260.703 286.449 C 260.963 283.639 260.793 282.142 260.937 281.571 C 261.112 280.873 258.015 284.042 258.215 283.13 C 258.358 282.479 258.714 281.486 259.006 280.923 C 259.298 280.361 259.929 278.383 258.836 277.604 L 257.671 276.796 C 257.439 276.682 256.14 278.507 256.142 278.508 M 175.249 278.548 L 174.289 279.445 L 175.528 280.667 C 176.659 281.797 176.675 281.867 176.005 282.694 C 175.588 283.209 174.181 282.762 173.691 282.687 C 173.2 282.612 172.052 282.065 171.705 281.638 C 171.357 281.212 172.318 283.085 173.686 285.725 C 176.327 290.822 180.013 298.038 180.983 299.963 C 181.953 301.888 183.794 304.413 183.814 304.4 C 183.834 304.387 185.183 306.895 187.528 307.56 C 189.078 307.965 201.038 307.567 201.034 306.943 C 202.777 306.554 200.344 303.554 198.226 302.538 C 196.504 301.712 190.764 299.883 190.133 299.253 C 186.97 296.095 180.78 280.379 182.091 278.806 C 182.379 278.46 181.469 279.309 181.13 279.59 C 180.811 279.855 179.997 279.599 178.582 278.79 C 176.09 277.364 176.567 277.022 175.472 278.188 M 229.321 278.71 C 229.094 281.797 228.693 283.462 227.999 284.201 C 227.559 284.669 225.635 286.717 225.197 285.392 C 224.947 284.633 224.557 283.897 224.331 283.757 C 224.08 283.602 224.095 283.831 224.37 284.344 C 224.618 284.807 227.872 296.863 228.624 299.563 C 229.375 302.262 231.399 311.336 232.481 312.111 C 234.765 313.748 238.874 313.849 238.874 313.849 C 238.874 313.849 242.796 314.05 243.749 314.084 C 244.259 314.102 249.439 313.872 249.826 313.485 C 250.371 312.94 250.61 309.637 250.19 309.325 C 250.041 309.215 247.88 306.063 247.88 306.063 L 238.663 305.103 C 238.663 305.103 235.667 288.515 235.452 287.319 C 235.237 286.124 234.907 283.519 234.847 282.386 C 234.787 281.253 234.855 278.425 234.727 278.503 C 234.599 278.581 233.519 280.751 232.767 280.247 C 229.301 277.919 229.376 277.952 229.321 278.71 M 260.649 279.015 C 260.512 279.373 261.038 278.004 260.649 279.015" stroke="none" fill="#643108" fill-rule="evenodd" style=""/>
    <path id="path3" d="M 256.739 114.655 C 250.094 123.624 247.03 137.476 249.032 143.491 C 249.568 145.102 248.98 145.339 247.403 142.714 C 245.751 139.635 246.04 138.305 246.126 135.6 C 246.212 132.895 246.837 129.693 247.315 127.97 C 247.984 125.558 248.036 124.872 247.868 124.829 C 246.803 124.556 242.958 126.086 236.572 128.607 C 229.656 131.337 226.613 131.751 220.501 132.307 L 216.399 132.357 L 216.348 134.948 C 216.477 139.946 219.144 145.268 223.439 149.86 C 227.336 154.025 227.426 154.04 232.059 149.455 C 234.245 147.292 236.313 145.044 237.083 144.502 C 238.711 143.356 239.048 142.863 234.6 149.048 C 227.807 158.492 221.785 169.104 221.313 172.525 C 220.597 177.721 225.331 184.034 238.514 197.506 C 249.94 209.182 255.755 215.519 249.167 209.479 C 247.535 207.983 242.69 203.948 238.4 200.512 C 234.11 197.077 228.557 192.228 226.06 189.736 C 220.755 184.442 221.712 184.636 214.698 188.063 C 201.306 194.607 197.005 195.575 181.591 196.592 C 162.837 197.829 154.344 201.718 146.254 211.9 C 139.905 219.891 138.807 225.319 137.85 243.8 C 137.104 258.198 135.596 262.321 129.757 269.067 C 128.28 270.773 126.142 272.972 126.142 272.972 C 126.098 273.016 126.068 273.395 126.068 273.395 C 126.402 273.47 127.406 273.543 128.243 273.415 C 129.38 273.241 129.848 273.491 129.784 273.612 C 129.644 273.875 129.885 273.994 130.358 274 C 130.879 274.007 131.145 274.402 131.43 275.498 C 132.152 278.275 133.222 279.107 135.86 277.222 C 136.776 276.568 139.635 275.063 143.567 273.612 C 162.207 266.735 168.554 258.873 175.818 236.9 C 177.29 232.445 178.615 228.8 178.761 228.8 C 179.066 228.8 178.893 233.456 178.455 237.022 L 178.125 239.51 L 180.544 238.479 C 183.474 237.296 188.218 236.897 191.244 237.58 C 193.893 238.177 199.655 239.997 200.2 240.409 C 201.26 241.209 207.473 242.889 211.02 243.334 L 215.145 243.871 L 216.08 241.216 C 216.595 239.777 217.011 238.504 217.378 237.404 L 218.238 235.595 C 218.284 234.983 218.44 237.32 218.315 238.97 C 217.734 243.739 217.706 244.544 217.177 246.743 C 215.142 255.199 215.592 254.683 219.369 267.34 C 220.616 271.52 222.113 276.872 222.748 279.182 C 224.326 284.926 225.576 286.899 226.506 286.219 C 226.888 285.94 227.67 284.863 228.193 284.146 C 228.789 283.329 229.086 281.83 229.321 278.729 C 229.376 277.997 229.437 278.02 231.846 279.65 C 234.655 281.552 234.793 282.043 234.704 273.168 C 234.577 260.524 234.896 258.549 241.879 247.109 C 245.978 240.395 247.364 237.201 248.628 233.6 L 249.54 231 L 249.57 232.761 L 249.578 234.279 L 250.411 233.587 C 251.87 231.905 251.988 228.334 250.634 226.837 C 249.731 225.84 249.817 225.505 251.524 223.336 C 252.362 222.271 253.391 220.815 253.81 220.1 C 254.229 219.385 254.697 218.8 254.849 218.8 C 255.63 218.8 260.798 225.104 262.883 228.6 L 265.268 232.6 L 265.038 229.2 C 264.535 221.781 261.087 213.778 253.554 202.549 C 248.559 195.102 245.6 187.953 245.6 183.328 C 245.6 168.055 268.944 142.301 290.44 133.86 C 293.21 132.771 299.844 131.885 301.038 131.662 C 299.024 130.498 295.979 129.2 293.919 128.259 C 287.763 125.446 280.095 122.985 279.656 123.646 C 279.336 124.129 280.164 127.964 280.596 128.612 C 280.729 128.812 280.702 128.82 281.404 128.821 C 282.63 128.822 283.141 128.755 280.835 130.13 C 277.749 131.971 276.211 133.021 272.753 135.527 C 268.882 138.333 269.582 137.436 270.268 136.526 C 270.683 135.976 270.973 135.763 271.916 134.766 C 271.916 134.766 267.936 136.633 261.322 141.59 C 257.701 144.303 257.378 144.348 256.431 142.265 C 253.311 135.412 253.897 123.768 257.422 116.004 C 258.951 112.634 258.682 111.998 256.799 114.562 M 306.031 115.534 C 300.546 118.023 294.543 122.138 292.623 124.271 C 292.623 124.271 297.265 126.726 298.36 126.611 C 299.201 126.523 299.659 125.842 301.208 123.77 C 302.757 121.698 304.671 119.296 306.345 117.535 C 310.181 114.191 309.681 113.908 306.118 115.486 M 292.922 139.893 C 280.808 143.996 266.626 156.187 259.465 168.606 L 258.017 171.202 L 259.399 170.727 C 259.935 170.59 262.285 169.57 264.345 169.016 C 270.141 167.455 274.623 167 278.947 167.535 C 284.912 168.272 286.699 168.845 299.658 174.177 C 308.626 177.866 315.755 177.53 320.726 173.114 C 320.778 172.573 319.579 172.039 317.998 171.026 C 312.545 167.532 309.819 163.901 308.778 158.891 C 308.179 156.01 308.492 155.444 309.427 157.718 C 310.372 160.015 310.337 160.014 311.743 157.79 C 313.639 154.789 312.333 151.203 306.073 144.67 C 299.883 138.212 299.214 137.753 293.554 139.669 M 291.144 157.181 C 292.419 157.611 294.647 158.511 296.096 159.181 C 299.284 160.657 299.605 160.672 300.799 159.402 C 302.017 158.104 302.236 158.381 301.394 160.156 C 300.938 161.117 300.279 161.737 299.359 162.069 C 297.854 162.613 297.846 162.899 299.259 165.7 C 300.157 167.48 300.114 167.478 298.132 166.307 C 297.099 165.697 295.577 165.297 293.474 165.011 C 289.857 164.518 288.344 163.884 285.057 161.424 C 285.132 161.445 282.933 159.633 282.6 159.538 L 279.9 159.772 C 276.41 160.074 276.495 159.667 280.3 157.867 C 284.022 156.107 287.333 155.897 291.144 157.181 M 85.049 159.986 C 84.008 166.494 77.654 177.127 75.743 175.559 C 74.716 174.716 71.77 168.22 70.773 164.6 C 70.288 162.84 69.814 161.13 69.719 160.8 C 69.295 159.329 64.187 168.031 62.792 172.6 C 62.124 174.787 61.678 175.179 60.963 174.21 C 60.055 172.98 58 166.172 58 164.395 C 58 161.859 57.08 162.997 53.809 166.477 C 52.35 167.984 52.116 168.894 52.116 168.894 C 50.543 177.772 50.95 184.866 52.678 191.255 C 50.829 189.321 51.325 190 49.791 188.184 C 46.38 184.147 46.052 184.99 47.427 191.786 C 49.669 202.863 53.966 211.425 61.138 218.646 C 61.138 218.646 64.217 221.602 64.1 221.746 C 63.987 221.914 61.951 221.526 61.5 221.416 C 58.382 220.653 58.431 220.673 57.591 220.545 C 55.908 220.289 56.798 221.483 59.773 224.82 C 67.262 233.218 75.287 237.215 91.629 239.119 C 90.147 239.888 87.561 241.125 85.298 241.846 C 81.11 243.181 86.484 243.993 92.484 244.156 C 95.391 244.235 98.642 243.92 101.388 243.581 C 105.197 243.11 111.658 241.153 115.874 238.897 C 118.588 237.445 118.444 237.87 118.019 239.1 C 117.661 240.137 116.976 241.886 116.856 242.271 C 116.285 244.094 122.795 240.102 129.194 235.044 C 135.161 230.327 135.187 230.371 136.284 225.301 C 137.277 220.71 140.636 214.118 143.357 210.163 C 145.458 207.108 144.817 207.536 135.554 209.548 C 115.265 213.955 103.791 209.945 96.721 197.015 C 94.772 193.45 93.516 186.443 93.811 173.633 C 93.855 171.728 94.207 169.591 94.31 168.821 C 94.403 168.066 94.441 167.372 94.44 167.378 L 93.808 168.735 C 93.05 170.425 92.475 170.23 91.592 167.982 C 90.333 164.778 86.347 158.4 85.604 158.4 C 85.438 158.4 85.188 159.114 85.049 159.986 M 178.518 252.518 C 177.668 252.704 177.28 253.234 177.28 256.547 C 177.28 262.672 175.32 268.285 171.214 273.855 C 169.119 276.698 169.316 277.706 170.44 279.909 C 171.444 281.877 172.718 282.538 173.78 282.7 C 174.222 282.768 175.588 283.209 176.005 282.694 C 176.675 281.867 176.829 281.711 175.69 280.572 C 175.688 280.592 174.524 279.938 174.563 279.512 C 174.529 279.1 176.117 277.907 176.357 277.873 C 176.994 277.873 178.635 278.929 178.63 278.929 C 178.611 278.936 180.345 280.175 180.732 280.02 C 181.096 280.239 181.916 279.041 181.872 279.015 C 182.362 278.326 185.379 275.601 189.182 272.757 C 195.94 267.703 199.338 264.676 201.736 261.19 C 202.385 260.247 203.38 258.341 203.38 258.341 C 203.38 258.341 200.61 256.705 193.2 254.325 C 185.282 251.782 182.163 251.679 178.729 252.43 M 262.113 257.536 C 260.793 258.394 257.79 260.082 255.333 261.314 C 252.219 262.876 249.954 264.193 249.738 264.598 C 249.522 265.003 249.745 267.515 250.12 270.977 C 250.346 273.061 250.582 275.284 250.86 277.246 C 251.329 280.565 251.824 283.18 251.923 283.433 C 251.963 283.536 252.878 282.744 253.627 281.699 C 254.376 280.655 255.596 279.127 256.338 278.304 C 256.336 278.304 257.484 276.75 257.687 276.807 C 257.962 276.841 258.358 282.479 258.215 283.13 C 258.015 284.042 260.861 281.573 260.861 281.573 C 262.084 271.989 262.047 269.291 264.808 260.186 C 266.293 255.289 266.093 255.019 262.287 257.493" stroke="none" fill-rule="evenodd" style="fill: rgb(228, 103, 3);"/>
    <path id="path1" d="M 266.2 101.072 C 261.097 103.795 255.033 110.545 251.17 117.8 C 250.233 119.56 249.437 121.044 249.402 121.097 C 249.367 121.151 247.732 121.622 245.769 122.145 C 243.806 122.667 239.856 124.098 236.992 125.324 C 229.29 128.623 224.925 129.693 218.8 129.783 L 213.8 129.856 L 213.685 134.007 C 213.472 141.692 216.387 147.966 223.318 154.741 L 225.508 156.881 L 223.184 160.795 C 217.304 170.698 216.601 174.004 219.254 179.284 C 220.23 181.226 220.195 181.888 219.1 182.214 C 218.605 182.361 215.32 183.888 211.8 185.606 C 201.004 190.877 194.837 192.314 179.2 193.202 C 165.63 193.973 159.559 195.847 151.777 201.667 C 149.956 203.029 149.338 203.239 145.577 203.774 C 143.28 204.101 138.61 205.021 135.2 205.817 C 114.46 210.66 102.779 205.444 98.32 189.351 C 97.289 185.63 97.109 176.055 97.967 170.6 C 103.68 134.268 79.243 109.309 41.9 113.334 C 38.267 113.726 38.188 113.854 40.7 115.274 C 45.318 117.886 49.979 122.629 52.122 126.897 C 55.874 134.366 55.616 142.834 51.218 156.6 C 48.797 164.179 47.957 168.567 47.716 174.9 C 47.592 178.145 47.37 180.8 47.221 180.8 C 46.865 180.8 45.497 178.935 44.645 177.287 C 43.327 174.739 43.072 176.069 43.327 184.159 C 43.704 196.16 46.074 204.399 51.377 212.144 C 53.784 215.661 53.465 216.221 50.2 214.21 C 47.995 212.853 47.883 212.93 48.904 215.1 C 54.344 226.669 64.584 235.757 76.52 239.605 C 79.834 240.674 79.794 241.259 76.37 241.825 L 73.8 242.251 L 75.4 243.059 C 85.715 248.274 98.308 249.238 109 245.63 C 112.521 244.441 112.783 244.663 110.986 247.307 C 109.806 249.043 109.782 249.035 113.286 248.032 C 118.744 246.472 126.652 242.054 132.056 237.548 C 135.019 235.076 134.862 234.252 133.989 247.66 C 133.296 258.295 131.811 262.273 126.593 267.475 C 122.778 271.278 123.122 270.334 120.85 283.2 C 115.571 313.084 115.752 313.8 128.6 313.8 C 138.342 313.8 141.058 312.737 140.895 308.989 C 140.726 305.11 138.105 301.893 134.227 300.807 C 131.309 299.991 131.223 298.837 133.431 290.2 C 135.422 282.411 137.495 279.376 141.923 277.766 C 158.385 271.783 163.124 268.462 170.827 257.51 C 173.169 254.179 173.766 253.813 174.178 255.456 C 175.169 259.405 172.523 266.738 167.956 272.696 C 165.083 276.444 165.051 276.314 172.202 289.822 C 184.004 312.114 183.024 311.226 195.2 310.677 C 204.182 310.271 205.404 309.673 204.429 306.154 C 203.062 301.218 200.508 299.109 195.616 298.875 C 191.081 298.658 191.109 298.687 187.596 290.504 C 183.295 280.485 183.226 280.884 190.083 276.185 C 198.836 270.185 203.63 265.536 206.376 260.385 C 207.948 257.435 207.809 257.504 210.534 258.347 C 213.48 259.258 213.231 258.857 215.172 265.8 C 216.094 269.1 217.903 275.31 219.19 279.6 C 222.064 289.172 226.021 302.696 227.208 307 C 229.816 316.455 232.923 318.174 245.103 316.897 C 252.793 316.092 254.066 315.172 253.209 311.044 C 252.121 305.803 249.553 303.424 244.475 302.952 C 241.159 302.644 241.15 302.635 240.252 298.764 C 237.799 288.187 236.829 265.759 238.622 261.086 C 238.877 260.422 244.736 258.973 245.21 259.457 C 245.394 259.646 245.742 261.69 245.982 264 C 248.729 290.447 252.534 307.949 256.257 311.261 C 258.25 313.033 272.482 313.47 276.155 311.871 L 277.711 311.195 L 277.5 308.872 C 276.992 303.275 273.747 300.01 268.682 300.002 C 259.835 299.989 264.498 258.098 274.682 246.097 C 276.699 243.721 277.2 243.723 277.2 246.107 L 277.2 247.767 L 279.028 245.983 C 282.957 242.15 286.118 236.088 286.726 231.217 C 287.083 228.363 287.83 228.198 289.362 230.633 C 290.261 232.062 290.599 232.345 290.857 231.883 C 291.336 231.029 291.983 226.208 291.992 223.432 L 292 221.063 L 297.142 215.832 C 308.464 204.31 313.668 198.207 315.867 193.867 C 316.785 192.057 319.671 188.332 321.138 187.065 C 325.692 183.132 327.69 180.22 328.264 176.681 C 328.576 174.761 327.932 174.024 324.098 171.919 C 322.165 170.858 321.136 170.038 321.015 169.463 C 320.915 168.988 320.364 166.17 319.79 163.2 C 317.963 153.745 315.73 145.881 313.744 141.913 C 312.544 139.514 312.556 139.166 313.971 135.792 C 316.339 130.143 318.901 117.682 319.274 110 L 319.4 107.4 L 318.2 107.538 C 312.05 108.244 300.084 114.344 291.802 120.995 C 289.758 122.637 288.788 123.177 288.202 123 C 287.761 122.867 285.455 122.253 283.077 121.636 C 278.109 120.346 278.314 120.493 277.414 117.6 C 275.776 112.333 268.995 100.345 267.694 100.416 C 267.532 100.425 266.86 100.72 266.2 101.072 M 268.771 108.515 C 271.624 112.293 274.972 120.279 276.438 126.8 L 277.202 130.2 L 275.932 131.2 C 273.669 132.982 270.342 136.161 269.926 136.939 C 269.424 137.876 269.487 137.84 274.042 134.628 C 275.936 133.292 278.726 131.439 280.242 130.508 C 282.836 128.917 282.925 128.816 281.733 128.808 C 280.537 128.8 280.442 128.687 280.033 126.78 C 279.547 124.513 279.49 123.6 279.833 123.6 C 284.142 123.6 302.705 131.582 306.371 135.011 C 309.234 137.689 314.474 148.4 312.921 148.4 C 312.713 148.4 311.078 146.265 309.287 143.655 C 304.395 136.526 302.781 135.349 298.478 135.776 C 283.492 137.265 262.154 154.914 253.702 172.813 C 249.037 182.692 249.59 186.959 257.301 200.6 C 261.778 208.518 265.098 215.313 266.224 218.856 C 268.038 224.566 267.933 224.294 267.967 223.4 C 268.107 219.653 266.084 212.422 263.006 205.668 C 260.822 200.876 260.826 200.455 263.085 195.939 C 264.486 193.138 267.433 189.704 270.2 187.647 L 271.4 186.755 L 267.4 186.93 C 264.363 187.062 262.693 187.364 260.465 188.184 C 258.85 188.777 257.44 189.174 257.331 189.065 C 256.974 188.707 258.795 185.079 260.399 182.954 L 261.971 180.872 L 260.486 181.282 C 259.669 181.507 257.97 182.211 256.711 182.846 C 253.888 184.27 254 184.277 254 182.673 C 254 178.229 256.342 175.336 262.2 172.546 C 271.729 168.008 282.382 168.49 294.841 174.024 C 296.909 174.943 300.457 176.343 302.727 177.135 L 306.854 178.577 L 311.927 177.716 L 317 176.855 L 318.682 178.772 C 319.607 179.826 320.912 180.915 321.582 181.193 C 326.158 183.088 315.964 186.339 308.888 185.241 C 303.073 184.339 288.838 178.321 289.352 176.982 C 289.863 175.649 284.111 175.686 282.299 177.027 C 280.44 178.403 279.976 180.328 281.811 179.051 C 283.989 177.536 285.284 177.792 291.6 180.985 C 301.06 185.768 307.978 187.816 313.3 187.408 C 317.005 187.124 317.382 187.314 315.895 188.711 C 313.617 190.851 310.282 191.26 303.8 190.195 C 298.825 189.377 292.91 189.549 290.03 190.192 C 290.035 190.189 287.823 190.694 287.771 190.984 C 287.932 191.171 289.888 191.273 289.886 191.261 C 296.378 191.694 295.785 191.433 293.619 194.676 C 289.398 200.998 288.066 207.306 288.754 217.718 C 289.32 226.266 289.271 226.392 286.599 223.38 L 284.521 221.038 L 284.29 225.419 C 284.02 230.529 283.322 233.419 281.322 237.7 C 279.535 241.525 279.037 241.593 278.392 238.1 C 277.702 234.362 277.7 234.361 275.984 237.87 C 273.331 243.294 268.578 248.27 262.789 251.684 C 259.695 253.508 259.315 253.335 260.647 250.707 C 261.218 249.58 261.927 247.973 262.222 247.137 L 262.759 245.616 L 260.208 247.721 C 254.401 252.51 240.8 258.202 240.8 255.843 C 240.8 255.537 242.242 252.432 244.005 248.943 C 247.409 242.206 249.347 237.464 249.621 233.836 L 249.547 230.888 L 248.413 234.179 C 247.131 237.7 246.083 240.014 242.123 246.55 C 234.826 258.591 234.629 259.292 234.634 273.2 C 234.635 279.35 234.844 284.909 235.158 287.2 C 236.525 297.173 236.816 298.833 237.636 301.33 C 238.454 303.823 238.47 304.06 237.858 304.736 C 236.783 305.923 237.068 306.078 239.793 305.786 C 245.003 305.228 246.457 306.389 247.075 311.6 C 247.31 313.586 247.303 313.6 246.156 313.646 C 245.52 313.671 244.515 313.749 243.923 313.82 C 243.003 313.93 242.778 313.746 242.388 312.564 C 241.898 311.079 240.176 308.8 239.545 308.8 C 239.311 308.8 239.267 309.744 239.432 311.2 L 239.703 313.6 L 238.152 313.59 C 234.304 313.567 232.029 312.228 231.439 309.641 C 231.308 309.069 230.661 306.71 229.999 304.4 C 229.338 302.09 228.254 298.04 227.59 295.4 C 226.926 292.76 225.585 288.08 224.61 285 C 222.69 278.934 217.152 259.771 216.439 256.723 C 215.774 253.881 215.909 251.792 217.039 247.4 C 218.127 243.168 219.137 235.671 218.269 235.554 C 217.479 235.448 217.674 236.42 217.425 237.096 C 217.176 237.772 216.735 239.37 216.213 240.8 C 214.752 244.804 213.328 249.551 212.795 252.2 C 212.529 253.52 212.242 254.717 212.156 254.86 C 211.936 255.231 202.756 252.721 201.8 252.029 C 201.284 251.655 193.088 248.636 191 248.051 C 187.056 246.944 182.298 246.854 177.5 247.795 C 175.674 248.153 176.107 248.446 177.585 242.262 C 178.807 237.149 179.447 227.769 178.633 228.893 C 178.395 229.223 176.945 233.113 176.046 235.973 C 169.223 257.68 161.892 266.62 145.275 272.865 C 136.077 276.321 134.025 277.757 132.44 281.845 C 130.852 285.938 128.4 296.814 128.4 299.76 C 128.4 300.515 128.175 301.214 127.9 301.312 C 127.037 301.62 127.835 302.037 130.698 302.774 C 133.77 303.564 135.096 304.17 134.527 304.522 C 134.293 304.666 134.298 305.646 134.542 307.116 C 135.084 310.395 134.854 310.8 132.452 310.8 C 130.596 310.8 130.452 310.724 130.037 309.536 C 129.528 308.075 127.735 305.6 127.186 305.6 C 126.969 305.6 126.915 306.582 127.057 307.938 C 127.343 310.68 126.984 310.997 124.077 310.561 C 119.516 309.877 119.592 306.937 124.872 279.61 L 126.145 273.019 L 129.267 269.704 C 135.76 262.811 137.219 258.099 137.991 241.517 C 138.838 223.338 141.673 215.666 150.683 207.166 C 158.034 200.231 167.98 197.568 178.046 196.961 C 197.154 195.809 202.269 194.345 215.413 187.711 C 221.007 184.888 221.243 184.938 224.269 188.005 C 226.899 190.67 234.022 197.292 240.578 202.353 C 242.228 203.627 246.746 207.337 248.671 209.094 C 256.209 215.976 250.293 209.262 236.403 195 C 224.949 183.239 220.641 177.139 221.327 172.56 C 221.865 168.97 227.786 158.653 234.668 148.951 C 235.968 147.118 236.266 146.953 237.789 144.582 C 237.814 144.58 238.476 143.692 238.27 143.713 C 238.182 143.669 237.075 144.494 237.079 144.496 C 236.275 145.092 234.378 147.148 232.15 149.326 C 227.417 153.954 227.519 153.941 223.976 150.343 C 219.416 145.712 216.4 139.26 216.4 134.136 L 216.4 132.4 L 219.786 132.4 C 225.195 132.4 230.159 131.218 238 128.064 C 241.85 126.515 245.701 125.122 246.557 124.968 C 248.321 124.653 248.276 124.27 247.031 129 C 245.789 133.723 245.508 139.144 246.712 141.422 C 249.07 145.882 249.862 146.139 248.805 142.14 C 247.698 137.949 249.98 127.041 252.828 121.427 C 256.645 113.9 260.383 109.674 257.193 116.49 C 254.574 122.086 253.507 132.113 255.023 138.107 C 255.604 140.403 256.045 141.78 256.333 141.953 C 256.333 141.953 256.74 141.288 256.527 139.6 C 255.021 127.64 258.275 115.238 264.739 108.3 C 266.926 105.953 266.832 105.948 268.771 108.515 M 264.888 113.477 C 260.885 119.102 259.392 127.21 261.032 134.421 C 261.784 137.729 261.525 137.664 264.332 135.243 C 265.579 134.166 267.299 132.817 268.153 132.245 L 269.706 131.204 L 268.281 130.608 C 266.229 129.751 266.199 129.438 267.992 127.609 C 269.988 125.572 269.991 125.6 267.753 125.6 C 265.642 125.6 265.649 125.667 267.351 121.9 C 268.499 119.359 268.418 119.227 266.447 120.428 C 264.394 121.679 264.187 121.077 265.103 116.535 C 266.002 112.076 265.991 111.927 264.888 113.477 M 316.539 113.101 C 317.409 114.509 312.075 135.259 310.779 135.509 C 308.826 135.885 308.73 132.617 310.62 130.139 C 311.809 128.579 311.846 128.268 310.8 128.6 C 309.868 128.896 309.782 128.497 310.539 127.389 C 310.835 126.955 311.417 126.073 311.831 125.429 L 312.585 124.258 L 311.692 124.492 C 310.523 124.798 310.551 124.599 312.2 120.922 C 313.59 117.824 313.593 117.809 312.5 119.028 C 307.75 124.33 306.225 126.743 307.049 127.655 C 307.716 128.391 307.496 131.6 306.778 131.6 C 306.585 131.6 305.313 130.88 303.951 130 C 302.59 129.12 301.295 128.487 301.119 128.439 C 299.576 128.017 306.007 120.235 310.4 116.709 C 314.483 113.432 316.141 112.458 316.539 113.101 M 308.92 114.956 C 308.744 115.261 307.7 116.318 306.6 117.304 C 305.5 118.29 303.34 120.824 301.8 122.935 C 298.591 127.335 298.935 127.196 295.374 125.529 L 292.657 124.258 L 294.429 122.685 C 298.333 119.218 310.07 112.958 308.92 114.956 M 53.08 115.817 C 73.202 118.447 87.675 129.503 93.115 146.4 C 95.266 153.08 95.549 159.12 94.192 169.4 C 89.866 202.194 104.451 216.523 135.2 209.689 C 145.906 207.31 145.218 207.229 142.953 210.6 C 139.249 216.115 137.316 220.485 136.043 226.222 C 135.397 229.135 135.034 229.986 134.09 230.8 C 126.798 237.088 123.772 239.322 118.904 242.007 C 116.736 243.203 116.595 243.006 117.65 240.25 C 118.786 237.28 118.783 237.28 114.169 239.596 C 106.395 243.499 95.893 245.05 87.333 243.559 C 85.098 243.17 83.581 242 85.311 242 C 85.592 242 87.167 241.342 88.811 240.538 L 91.8 239.076 L 88.126 238.559 C 75.603 236.798 64.455 230.919 57.891 222.614 C 55.993 220.214 56.212 220.101 60.62 221.205 C 64.856 222.266 64.974 222.168 62.373 219.741 C 54.226 212.135 48.077 199.61 46.969 188.361 C 46.631 184.936 46.724 184.94 50.008 188.495 L 52.683 191.391 L 51.948 187.795 C 50.742 181.894 51.049 173.413 52.751 165.6 C 53.202 163.526 54.235 159.896 55.994 154.2 C 60.621 139.216 58.838 127.257 50.751 119.027 C 49.018 117.264 47.6 115.682 47.6 115.511 C 47.6 115.102 47.61 115.102 53.08 115.817 M 302.4 141.38 C 310.365 147.946 313.952 154.516 311.608 157.966 C 310.369 159.789 310.497 159.864 309.631 158.216 C 309.631 158.216 308.878 156.068 308.564 156.297 C 308.165 156.667 308.732 158.91 308.664 159 C 309.105 163.392 313.133 168.133 318.499 171.343 C 321.206 172.961 321.4 172.94 318.7 174.496 C 312.697 177.955 306.569 177.415 295.012 172.241 C 281.407 166.151 271.263 166.034 261.176 170.009 C 257.961 171.277 257.982 171.028 261.549 165.591 C 269.332 153.728 283.11 142.764 294.4 139.448 C 298.506 138.242 298.628 138.271 302.4 141.38 M 281.976 157.151 C 279.914 157.958 277.045 159.336 277.268 159.747 C 277.374 159.941 278.972 159.942 280.305 159.791 C 282.844 159.504 282.799 159.531 284.638 161.15 C 287.447 163.623 290.317 164.874 293.715 165.107 C 295.395 165.223 297.08 165.775 297.965 166.221 C 298.275 166.481 299.814 167.3 299.784 167.121 C 300.012 167.162 299.581 166.166 299.26 165.703 C 298.059 163.353 297.997 162.474 299.176 162.148 C 299.761 161.986 300.707 161.549 301.244 160.517 C 302.524 158.056 301.871 158.181 300.784 159.392 C 299.769 160.523 298.816 160.448 295.971 159.117 C 289.815 156.239 286.63 155.572 281.976 157.151 M 316.992 160.242 C 317.753 163.512 318.175 167.601 317.752 167.594 C 315.966 167.563 314.34 161.995 315.192 158.831 C 315.771 156.68 316.251 157.056 316.992 160.242 M 290.321 161.1 C 290.476 163.787 289.705 163.897 287.056 161.566 C 284.446 159.269 284.575 158.732 287.7 158.881 L 290.2 159 C 290.38 159.12 290.322 161.101 290.321 161.1 M 324.567 174.643 C 325.996 175.191 325.22 176 323.267 176 C 321.107 176 320.594 175.73 321.252 174.937 C 321.716 174.378 323.472 174.223 324.567 174.643 M 312.388 194.457 C 310.58 197.963 292.503 217.558 291.594 216.996 C 290.085 216.064 290.881 214.578 295.129 210.4 C 302.114 203.531 305.314 199.966 307.526 196.591 C 309.277 193.918 309.826 193.364 310.908 193.177 C 312.56 192.892 312.999 193.272 312.388 194.457 M 192.745 254.262 C 195.685 255.259 199.253 256.596 200.673 257.233 L 203.256 258.392 L 202.328 260.081 C 200.705 263.035 195.985 267.598 189.782 272.208 C 179.819 279.614 179.853 279.537 182.855 287.529 C 187.406 299.646 188.61 301.174 193.962 301.617 C 198.268 301.974 202.208 304.846 201.022 306.764 C 200.647 307.371 195.074 307.714 190.579 307.408 C 184.56 306.998 185.664 308.388 175.014 287.8 C 173.307 284.5 171.683 281.53 171.404 281.2 C 169.214 278.61 169.147 276.549 171.168 273.993 C 175.275 268.797 177.293 263.377 177.376 257.317 C 177.44 252.696 177.411 252.757 179.707 252.357 C 183.086 251.769 187.134 252.361 192.745 254.262 M 264.591 260.716 C 261.498 270.902 260.053 283.324 260.984 291.713 C 261.988 300.765 263 302.388 268.037 303.032 C 271.591 303.487 273.172 304.712 274.02 307.669 C 274.314 308.695 274.233 308.883 273.351 309.218 C 271.54 309.907 270.995 309.672 270.094 307.819 C 268.793 305.142 266.249 303.698 267.189 306.171 C 267.415 306.765 267.6 307.78 267.6 308.426 L 267.6 309.6 L 263.98 309.6 C 259.504 309.6 258.468 309.125 257.288 306.533 C 255.55 302.715 253.811 295.668 252.568 287.4 C 252.27 285.42 251.762 282.45 251.438 280.8 C 250.642 276.748 249.444 265.384 249.733 264.63 C 249.861 264.297 251.908 263.049 254.283 261.858 C 256.657 260.667 260.125 258.776 261.989 257.655 C 266.203 255.12 266.267 255.195 264.591 260.716 M 137.164 306.422 C 137.654 307.293 137.995 308.41 137.921 308.903 C 137.816 309.61 137.538 309.29 136.613 307.4 C 135.967 306.08 135.37 304.865 135.286 304.7 C 134.704 303.556 136.456 305.161 137.164 306.422 M 249.409 308.983 C 249.997 310.184 250.406 311.383 250.317 311.648 C 250.193 312.022 248.692 309.45 247.667 307.105 C 247.014 305.612 248.592 307.313 249.409 308.983" stroke="none" fill="#1a100a" fill-rule="evenodd" style=""/>
  </g>
</svg>